  <svg width="0" height="0" class="hidden" style="display:none">
  <symbol xmlns="http://www.w3.org/2000/svg" viewBox="0 0 451.846 451.847" id="arrow">
    <path d="M345.441 248.292L151.154 442.573c-12.359 12.365-32.397 12.365-44.75 0-12.354-12.354-12.354-32.391 0-44.744L278.318 225.92 106.409 54.017c-12.354-12.359-12.354-32.394 0-44.748 12.354-12.359 32.391-12.359 44.75 0l194.287 194.284c6.177 6.18 9.262 14.271 9.262 22.366 0 8.099-3.091 16.196-9.267 22.373z"></path>
  </symbol>
  <symbol xmlns="http://www.w3.org/2000/svg" viewBox="0 0 510 510" id="cart">
    <path d="M153 408c-28.05 0-51 22.95-51 51s22.95 51 51 51 51-22.95 51-51-22.95-51-51-51zM0 0v51h51l91.8 193.8-35.7 61.2c-2.55 7.65-5.1 17.85-5.1 25.5 0 28.05 22.95 51 51 51h306v-51H163.2c-2.55 0-5.1-2.55-5.1-5.1v-2.551l22.95-43.35h188.7c20.4 0 35.7-10.2 43.35-25.5L504.9 89.25c5.1-5.1 5.1-7.65 5.1-12.75 0-15.3-10.2-25.5-25.5-25.5H107.1L84.15 0H0zm408 408c-28.05 0-51 22.95-51 51s22.95 51 51 51 51-22.95 51-51-22.95-51-51-51z"></path>
  </symbol>
  <symbol xmlns="http://www.w3.org/2000/svg" viewBox="0 0 299.995 299.995" id="clock">
    <path d="M149.995 0C67.156 0 0 67.158 0 149.995s67.156 150 149.995 150 150-67.163 150-150S232.834 0 149.995 0zm64.847 178.524H151.25c-.215 0-.415-.052-.628-.06-.213.01-.412.06-.628.06-5.729 0-10.374-4.645-10.374-10.374V62.249c0-5.729 4.645-10.374 10.374-10.374s10.374 4.645 10.374 10.374v95.527h54.47c5.729 0 10.374 4.645 10.374 10.374 0 5.729-4.641 10.374-10.37 10.374z"></path>
  </symbol>
  <symbol xmlns="http://www.w3.org/2000/svg" viewBox="0 0 47.971 47.971" id="close">
    <path d="M28.228 23.986L47.092 5.122a2.998 2.998 0 0 0 0-4.242 2.998 2.998 0 0 0-4.242 0L23.986 19.744 5.121.88a2.998 2.998 0 0 0-4.242 0 2.998 2.998 0 0 0 0 4.242l18.865 18.864L.879 42.85a2.998 2.998 0 1 0 4.242 4.241l18.865-18.864L42.85 47.091c.586.586 1.354.879 2.121.879s1.535-.293 2.121-.879a2.998 2.998 0 0 0 0-4.242L28.228 23.986z"></path>
  </symbol>
  <symbol xmlns="http://www.w3.org/2000/svg" viewBox="0 0 213.933 213.933" id="compare">
    <path d="M213.416 123.608l-30.872-61.861a5.13 5.13 0 0 0 1.096-3.152 5.18 5.18 0 0 0-5.179-5.179h-58.334a6.248 6.248 0 0 0-1.924-12.191h-2.297c3.407-2.662 5.606-6.799 5.606-11.457 0-8.033-6.512-14.544-14.544-14.544-8.033 0-14.544 6.512-14.544 14.544 0 4.659 2.199 8.796 5.606 11.457h-2.298a6.248 6.248 0 0 0-6.248 6.248 6.25 6.25 0 0 0 4.324 5.943H36.065l-.009-.018-.009.018h-.574a5.18 5.18 0 0 0-5.179 5.179 5.15 5.15 0 0 0 1.407 3.529L.518 124.608a4.966 4.966 0 0 0-.45 3.033 3.17 3.17 0 0 0-.006.593c1.756 18.334 17.201 32.671 35.994 32.671s34.239-14.337 35.995-32.671a3.268 3.268 0 0 0-.006-.594c.163-1 .037-2.056-.45-3.032l-30.36-60.834h58.748v119.44H51.8c-5.797 0-10.496 4.699-10.496 10.496a5.003 5.003 0 0 0 5.003 5.003h121.321a5.003 5.003 0 0 0 5.003-5.003c0-5.797-4.699-10.496-10.496-10.496h-48.183V63.773H172.2l-29.861 59.834a4.967 4.967 0 0 0-.45 3.033 3.168 3.168 0 0 0-.006.593c1.756 18.334 17.201 32.671 35.994 32.671 18.794 0 34.239-14.337 35.995-32.671a3.268 3.268 0 0 0-.006-.594 4.962 4.962 0 0 0-.45-3.031zm-201.791 1.136l24.43-48.953 24.43 48.953h-48.86zm141.822-1l24.43-48.953 24.43 48.953h-48.86z"></path>
  </symbol>
  <symbol xmlns="http://www.w3.org/2000/svg" viewBox="0 0 320.648 320.648" id="discount">
    <path d="M139.219 124.494c12.369-13.416 19.184-31.412 19.184-50.678C158.403 37.134 132.202 0 82.116 0 58.807 0 39.143 8.006 25.247 23.152 12.938 36.57 6.161 54.562 6.161 73.816c0 36.686 26.09 73.818 75.955 73.818 23.396.001 43.146-7.999 57.103-23.14zM82.116 34.322c27.443 0 39.941 20.486 39.941 39.52 0 10.354-3.484 19.939-9.816 26.986-7.064 7.871-17.33 12.033-29.68 12.033-28.137 0-40.955-20.484-40.955-39.516 0-19.421 12.528-39.023 40.51-39.023zm182.158-5.846c-4.539.082-10.736 2.912-13.772 6.287L25.186 285.275c-3.035 3.377-.885 8.111 3.654 8.111h29.49c4.539 0 10.73-2.768 13.76-6.148L296.013 36.777c3.029-3.383 2.828-8.887-4.672-8.885l-27.067.584zm-24.627 147.346c-22.859 0-42.15 7.858-55.783 22.715-12.074 13.158-18.726 30.811-18.726 49.699 0 35.984 25.594 72.412 74.51 72.412 22.957 0 42.326-7.85 56.02-22.701 12.135-13.162 18.818-30.816 18.818-49.711-.001-35.984-25.706-72.414-74.839-72.414zm.442 111.596c-27.375 0-39.848-20.557-39.848-39.648 0-10.397 3.482-20.018 9.809-27.092 7.053-7.894 17.287-12.066 29.598-12.066 27.377 0 39.844 20.553 39.844 39.65 0 10.395-3.483 20.018-9.805 27.092-7.055 7.892-17.29 12.064-29.598 12.064z"></path>
  </symbol>
  <symbol xmlns="http://www.w3.org/2000/svg" viewBox="0 0 51.997 51.997" id="favorites">
    <path d="M51.911 16.242c-.759-8.354-6.672-14.415-14.072-14.415-4.93 0-9.444 2.653-11.984 6.905-2.517-4.307-6.846-6.906-11.697-6.906C6.759 1.826.845 7.887.087 16.241c-.06.369-.306 2.311.442 5.478 1.078 4.568 3.568 8.723 7.199 12.013l18.115 16.439 18.426-16.438c3.631-3.291 6.121-7.445 7.199-12.014.748-3.166.502-5.108.443-5.477z"></path>
  </symbol>
  <symbol xmlns="http://www.w3.org/2000/svg" viewBox="0 0 511.626 511.626" id="mail">
    <path d="M49.106 178.729c6.472 4.567 25.981 18.131 58.528 40.685 32.548 22.554 57.482 39.92 74.803 52.099 1.903 1.335 5.946 4.237 12.131 8.71 6.186 4.476 11.326 8.093 15.416 10.852 4.093 2.758 9.041 5.852 14.849 9.277 5.806 3.422 11.279 5.996 16.418 7.7 5.14 1.718 9.898 2.569 14.275 2.569h.575c4.377 0 9.137-.852 14.277-2.569 5.137-1.704 10.615-4.281 16.416-7.7 5.804-3.429 10.752-6.52 14.845-9.277 4.093-2.759 9.229-6.376 15.417-10.852 6.184-4.477 10.232-7.375 12.135-8.71 17.508-12.179 62.051-43.11 133.615-92.79 13.894-9.703 25.502-21.411 34.827-35.116 9.332-13.699 13.993-28.07 13.993-43.105 0-12.564-4.523-23.319-13.565-32.264-9.041-8.947-19.749-13.418-32.117-13.418H45.679c-14.655 0-25.933 4.948-33.832 14.844C3.949 79.562 0 91.934 0 106.779c0 11.991 5.236 24.985 15.703 38.974 10.466 13.99 21.604 24.983 33.403 32.976z"></path>
    <path d="M483.072 209.275c-62.424 42.251-109.824 75.087-142.177 98.501-10.849 7.991-19.65 14.229-26.409 18.699-6.759 4.473-15.748 9.041-26.98 13.702-11.228 4.668-21.692 6.995-31.401 6.995h-.578c-9.707 0-20.177-2.327-31.405-6.995-11.228-4.661-20.223-9.229-26.98-13.702-6.755-4.47-15.559-10.708-26.407-18.699-25.697-18.842-72.995-51.68-141.896-98.501C17.987 202.047 8.375 193.762 0 184.437v226.685c0 12.57 4.471 23.319 13.418 32.265 8.945 8.949 19.701 13.422 32.264 13.422h420.266c12.56 0 23.315-4.473 32.261-13.422 8.949-8.949 13.418-19.694 13.418-32.265V184.437c-8.186 9.132-17.7 17.417-28.555 24.838z"></path>
  </symbol>
  <symbol xmlns="http://www.w3.org/2000/svg" viewBox="0 0 54.757 54.757" id="map-pin">
    <path d="M40.94 5.617A19.052 19.052 0 0 0 27.38 0a19.05 19.05 0 0 0-13.56 5.617c-6.703 6.702-7.536 19.312-1.804 26.952L27.38 54.757 42.721 32.6c5.755-7.671 4.922-20.281-1.781-26.983zM27.557 26c-3.859 0-7-3.141-7-7s3.141-7 7-7 7 3.141 7 7-3.141 7-7 7z"></path>
  </symbol>
  <symbol xmlns="http://www.w3.org/2000/svg" viewBox="0 0 56 56" id="menu">
    <path d="M28 0C12.561 0 0 12.561 0 28s12.561 28 28 28 28-12.561 28-28S43.439 0 28 0zm12 41H16a2 2 0 0 1 0-4h24a2 2 0 0 1 0 4zm0-11H16a2 2 0 0 1 0-4h24a2 2 0 0 1 0 4zm0-11H16a2 2 0 0 1 0-4h24a2 2 0 0 1 0 4z"></path>
  </symbol>
  <symbol xmlns="http://www.w3.org/2000/svg" viewBox="0 0 459.313 459.314" id="minus-icon">
    <path d="M459.313 229.648c0 22.201-17.992 40.199-40.205 40.199H40.181c-11.094 0-21.14-4.498-28.416-11.774C4.495 250.808 0 240.76 0 229.66c-.006-22.204 17.992-40.199 40.202-40.193h378.936c22.195.005 40.17 17.989 40.175 40.181z"></path>
  </symbol>
  <symbol xmlns="http://www.w3.org/2000/svg" viewBox="0 0 510 510" id="new">
    <path d="M255 0C114.75 0 0 114.75 0 255s114.75 255 255 255 255-114.75 255-255S395.25 0 255 0zm89.25 153c20.4 0 38.25 17.85 38.25 38.25s-17.85 38.25-38.25 38.25S306 211.65 306 191.25 323.85 153 344.25 153zm-178.5 0c20.4 0 38.25 17.85 38.25 38.25s-17.85 38.25-38.25 38.25-38.25-17.85-38.25-38.25S145.35 153 165.75 153zM255 408c-66.3 0-122.4-43.35-142.8-102h285.6c-20.4 58.65-76.5 102-142.8 102z"></path>
  </symbol>
  <symbol xmlns="http://www.w3.org/2000/svg" viewBox="0 0 348.077 348.077" id="phone">
    <path d="M340.273 275.083l-53.755-53.761c-10.707-10.664-28.438-10.34-39.518.744l-27.082 27.076a792.327 792.327 0 0 1-5.344-2.973c-17.102-9.476-40.509-22.464-65.14-47.113-24.704-24.701-37.704-48.144-47.209-65.257-1.003-1.813-1.964-3.561-2.913-5.221l18.176-18.149 8.936-8.947c11.097-11.1 11.403-28.826.721-39.521L73.39 8.194c-10.682-10.68-28.421-10.356-39.518.744l-15.15 15.237.414.411c-5.08 6.482-9.325 13.958-12.484 22.02C3.74 54.28 1.927 61.603 1.098 68.941-6 127.785 20.89 181.564 93.866 254.541c100.875 100.868 182.167 93.248 185.674 92.876 7.638-.913 14.958-2.738 22.397-5.627 7.992-3.122 15.463-7.361 21.941-12.43l.331.294 15.348-15.029c11.074-11.098 11.393-28.83.716-39.542z"></path>
  </symbol>
  <symbol viewBox="0 0 448 448" xmlns="http://www.w3.org/2000/svg" id="plus-icon">
    <path d="M408 184H272a8 8 0 0 1-8-8V40c0-22.09-17.91-40-40-40s-40 17.91-40 40v136a8 8 0 0 1-8 8H40c-22.09 0-40 17.91-40 40s17.91 40 40 40h136a8 8 0 0 1 8 8v136c0 22.09 17.91 40 40 40s40-17.91 40-40V272a8 8 0 0 1 8-8h136c22.09 0 40-17.91 40-40s-17.91-40-40-40zm0 0"></path>
  </symbol>
  <symbol xmlns="http://www.w3.org/2000/svg" viewBox="0 0 126.729 126.73" id="rating-star">
    <path d="M121.215 44.212l-34.899-3.3c-2.2-.2-4.101-1.6-5-3.7l-12.5-30.3c-2-5-9.101-5-11.101 0l-12.4 30.3c-.8 2.1-2.8 3.5-5 3.7l-34.9 3.3c-5.2.5-7.3 7-3.4 10.5l26.3 23.1c1.7 1.5 2.4 3.7 1.9 5.9l-7.9 32.399c-1.2 5.101 4.3 9.3 8.9 6.601l29.1-17.101c1.9-1.1 4.2-1.1 6.1 0l29.101 17.101c4.6 2.699 10.1-1.4 8.899-6.601l-7.8-32.399c-.5-2.2.2-4.4 1.9-5.9l26.3-23.1c3.8-3.5 1.6-10-3.6-10.5z"></path>
  </symbol>
  <symbol xmlns="http://www.w3.org/2000/svg" viewBox="0 0 511.626 511.627" id="return">
    <path d="M506.206 179.012L360.025 32.834c-3.617-3.617-7.898-5.426-12.847-5.426s-9.233 1.809-12.847 5.426c-3.617 3.619-5.428 7.902-5.428 12.85v73.089H264.95c-135.716 0-218.984 38.354-249.823 115.06C5.042 259.335 0 291.03 0 328.907c0 31.594 12.087 74.514 36.259 128.762.57 1.335 1.566 3.614 2.996 6.849a603.829 603.829 0 0 0 3.854 8.565c1.146 2.471 2.384 4.565 3.715 6.276 2.282 3.237 4.948 4.859 7.994 4.859 2.855 0 5.092-.951 6.711-2.854 1.615-1.902 2.424-4.284 2.424-7.132 0-1.718-.238-4.236-.715-7.569-.476-3.333-.715-5.564-.715-6.708-.953-12.938-1.429-24.653-1.429-35.114 0-19.223 1.668-36.449 4.996-51.675 3.333-15.229 7.948-28.407 13.85-39.543 5.901-11.14 13.512-20.745 22.841-28.835 9.325-8.09 19.364-14.702 30.118-19.842 10.756-5.141 23.413-9.186 37.974-12.135 14.56-2.95 29.215-4.997 43.968-6.14s31.455-1.711 50.109-1.711h63.953v73.091c0 4.948 1.807 9.232 5.421 12.847 3.62 3.613 7.901 5.424 12.847 5.424 4.948 0 9.232-1.811 12.854-5.424l146.178-146.183c3.617-3.617 5.424-7.898 5.424-12.847-.001-4.948-1.807-9.232-5.421-12.856z"></path>
  </symbol>
  <symbol xmlns="http://www.w3.org/2000/svg" viewBox="0 0 310.42 310.42" id="search">
    <path d="M273.587 214.965c49.11-49.111 49.109-129.021 0-178.132-49.111-49.111-129.02-49.111-178.13 0C53.793 78.497 47.483 140.462 76.51 188.85c0 0 2.085 3.498-.731 6.312l-64.263 64.263c-12.791 12.79-15.836 30.675-4.493 42.02l1.953 1.951c11.343 11.345 29.229 8.301 42.019-4.49l64.128-64.128c2.951-2.951 6.448-.866 6.448-.866 48.387 29.026 110.352 22.717 152.016-18.947zM118.711 191.71c-36.288-36.288-36.287-95.332.001-131.62 36.288-36.287 95.332-36.288 131.619 0 36.288 36.287 36.288 95.332 0 131.62-36.288 36.286-95.331 36.286-131.62 0z"></path>
    <path d="M126.75 118.424c-1.689 0-3.406-.332-5.061-1.031-6.611-2.798-9.704-10.426-6.906-17.038 17.586-41.559 65.703-61.062 107.261-43.476 6.611 2.798 9.704 10.426 6.906 17.038-2.799 6.612-10.425 9.703-17.039 6.906-28.354-11.998-61.186 1.309-73.183 29.663-2.099 4.959-6.913 7.938-11.978 7.938z"></path>
  </symbol>
  <symbol xmlns="http://www.w3.org/2000/svg" viewBox="0 0 350 350" id="user">
    <path d="M175 171.173c38.914 0 70.463-38.318 70.463-85.586C245.463 38.318 235.105 0 175 0s-70.465 38.318-70.465 85.587c0 47.268 31.549 85.586 70.465 85.586zM41.909 301.853c-.012-2.882-.024-.812 0 0zm266.176 2.251c.038-.789.013-5.474 0 0z"></path>
    <path d="M307.935 298.397c-1.305-82.342-12.059-105.805-94.352-120.657 0 0-11.584 14.761-38.584 14.761s-38.586-14.761-38.586-14.761C55.018 192.43 43.61 215.545 42.11 295.722c-.123 6.547-.18 6.891-.202 6.131.005 1.424.011 4.058.011 8.651 0 0 19.592 39.496 133.08 39.496 113.486 0 133.08-39.496 133.08-39.496 0-2.951.002-5.003.005-6.399-.022.47-.066-.441-.149-5.708z"></path>
  </symbol>
  <svg width="0" height="0" class="hidden">
    <symbol xmlns="http://www.w3.org/2000/svg" viewBox="0 0 32.3 32.3" id="check">
      <path d="M11.3 28.6c1.8 0 20.3-20.4 20.7-21 .5-.7-1.4-3.2-3-3.5-1.1-.2-15.6 17.5-17.4 17.9-1.2.3-7.5-8.1-8.2-8.2-.5-.1-3 2.2-3 3.1 0 1 9.4 11.7 10.9 11.7z"></path>
    </symbol>
  </svg>  
  <symbol xmlns="http://www.w3.org/2000/svg" viewBox="0 0 512 215.9" id="filters">
    <path d="M487 .9H25C11.2.9 0 12 0 25.9c0 13.8 11.2 25 25 25h462c13.8 0 25-11.2 25-25 0-13.9-11.2-25-25-25zm-86 82.5H111c-13.8 0-25 11.2-25 25s11.2 25 25 25h290c13.8 0 25-11.2 25-25s-11.2-25-25-25zm-70 82.5H181c-13.8 0-25 11.2-25 25s11.2 25 25 25h150c13.8 0 25-11.2 25-25s-11.2-25-25-25z"></path>
  </symbol>
  <symbol xmlns="http://www.w3.org/2000/svg" viewBox="0 0 512 512" id="icon-list">
    <path d="M118.5 0H20C9 0 0 9 0 20v98.5c0 11 9 20 20 20h98.5c11 0 20-9 20-20V20c0-11-9-20-20-20zM492 0H206.8c-11 0-20 9-20 20v98.5c0 11 9 20 20 20H492c11 0 20-9 20-20V20c0-11-9-20-20-20zM118.5 186.8H20c-11 0-20 9-20 20v98.5c0 11 9 20 20 20h98.5c11 0 20-9 20-20v-98.5c0-11.1-9-20-20-20zm373.5 0H206.8c-11 0-20 9-20 20v98.5c0 11 9 20 20 20H492c11 0 20-9 20-20v-98.5c0-11.1-9-20-20-20zm-373.5 187H20c-11 0-20 9-20 20v98.5c0 11 9 20 20 20h98.5c11 0 20-9 20-20v-98.5c0-11.1-9-20-20-20zm373.5 0H206.8c-11 0-20 9-20 20v98.5c0 11 9 20 20 20H492c11 0 20-9 20-20v-98.5c0-11.1-9-20-20-20z"></path>
  </symbol>
  <symbol xmlns="http://www.w3.org/2000/svg" viewBox="0 0 512 512" id="icon-table">
    <path d="M118.5 0H20C9 0 0 9 0 20v98.5c0 11 9 20 20 20h98.5c11 0 20-9 20-20V20c0-11-9-20-20-20zm186.8 0h-98.5c-11 0-20 9-20 20v98.5c0 11 9 20 20 20h98.5c11 0 20-9 20-20V20c0-11-9-20-20-20zM492 0h-98.5c-11 0-20 9-20 20v98.5c0 11 9 20 20 20H492c11 0 20-9 20-20V20c0-11-9-20-20-20zM118.5 186.8H20c-11 0-20 9-20 20v98.5c0 11 9 20 20 20h98.5c11 0 20-9 20-20v-98.5c0-11.1-9-20-20-20zm186.8 0h-98.5c-11 0-20 9-20 20v98.5c0 11 9 20 20 20h98.5c11 0 20-9 20-20v-98.5c0-11.1-9-20-20-20zm186.7 0h-98.5c-11 0-20 9-20 20v98.5c0 11 9 20 20 20H492c11 0 20-9 20-20v-98.5c0-11.1-9-20-20-20zm-373.5 187H20c-11 0-20 9-20 20v98.5c0 11 9 20 20 20h98.5c11 0 20-9 20-20v-98.5c0-11.1-9-20-20-20zm186.8 0h-98.5c-11 0-20 9-20 20v98.5c0 11 9 20 20 20h98.5c11 0 20-9 20-20v-98.5c0-11.1-9-20-20-20zm186.7 0h-98.5c-11 0-20 9-20 20v98.5c0 11 9 20 20 20H492c11 0 20-9 20-20v-98.5c0-11.1-9-20-20-20z"></path>
  </symbol>
  <symbol xmlns="http://www.w3.org/2000/svg" viewBox="0 0 511.6 511.6" id="return-back">
    <path d="M0 191.9c0 4.9 1.8 9.2 5.4 12.8l146.2 146.2c3.6 3.6 7.9 5.4 12.9 5.4 4.9 0 9.2-1.8 12.8-5.4 3.6-3.6 5.4-7.9 5.4-12.8V265h64c18.7 0 35.4.6 50.1 1.7 14.8 1.1 29.4 3.2 44 6.1 14.6 2.9 27.2 7 38 12.1s20.8 11.8 30.1 19.8c9.3 8.1 16.9 17.7 22.8 28.8 5.9 11.1 10.5 24.3 13.9 39.5 3.3 15.2 5 32.5 5 51.7 0 10.5-.5 22.2-1.4 35.1 0 1.1-.2 3.4-.7 6.7-.5 3.3-.7 5.9-.7 7.6 0 2.8.8 5.2 2.4 7.1 1.6 1.9 3.9 2.9 6.7 2.9 3 0 5.7-1.6 8-4.9 1.3-1.7 2.6-3.8 3.7-6.3s2.4-5.3 3.9-8.6c1.4-3.2 2.4-5.5 3-6.8 24.2-54.2 36.3-97.2 36.3-128.8 0-37.9-5-69.6-15.1-95.1-30.8-76.7-114.1-115.1-249.8-115.1h-64V45.7c0-4.9-1.8-9.2-5.4-12.8-3.6-3.6-7.9-5.4-12.8-5.4s-9.2 1.8-12.8 5.4L5.4 179c-3.6 3.6-5.4 7.9-5.4 12.9z"></path>
  </symbol>  
  <symbol xmlns="http://www.w3.org/2000/svg" viewBox="0 0 469.44 469.44" id="hide-icon">
    <path d="M231.147 160.373l67.2 67.2.32-3.52c0-35.307-28.693-64-64-64l-3.52.32z"></path>
    <path d="M234.667 117.387c58.88 0 106.667 47.787 106.667 106.667 0 13.76-2.773 26.88-7.573 38.933l62.4 62.4c32.213-26.88 57.6-61.653 73.28-101.333-37.013-93.653-128-160-234.773-160-29.867 0-58.453 5.333-85.013 14.933l46.08 45.973c12.052-4.693 25.172-7.573 38.932-7.573zM21.333 59.253l48.64 48.64 9.707 9.707C44.48 145.12 16.64 181.707 0 224.053c36.907 93.653 128 160 234.667 160 33.067 0 64.64-6.4 93.547-18.027l9.067 9.067 62.187 62.293 27.2-27.093L48.533 32.053l-27.2 27.2zM139.307 177.12l32.96 32.96c-.96 4.587-1.6 9.173-1.6 13.973 0 35.307 28.693 64 64 64 4.8 0 9.387-.64 13.867-1.6l32.96 32.96c-14.187 7.04-29.973 11.307-46.827 11.307-58.88 0-106.667-47.787-106.667-106.667 0-16.853 4.267-32.64 11.307-46.933z"></path>
  </symbol>  
</svg>