<svg height="512" viewBox="0 0 256 256" width="512" xmlns="http://www.w3.org/2000/svg"><path d="M185.62 80.203l-11.011-11.011 17.749-17.749a2 2 0 012.828 0l8.183 8.183a2 2 0 010 2.828z" fill="#ff4a73"/><path d="M119.668 27.474h16.663v32.622h-16.663z" fill="#87828e"/><circle cx="128" cy="146.785" fill="#87828e" r="100.434"/><circle cx="128" cy="146.785" fill="#5fcdff" r="81.669"/><path d="M148.148 27.474h-40.296a5 5 0 01-5-5v-8.689a5 5 0 015-5h40.296a5 5 0 015 5v8.689a5 5 0 01-5 5z" fill="#87828e"/><path d="M136.92 151.864c-4.613 4.613-11.486 5.218-15.351 1.353-3.866-3.866-3.26-10.739 1.353-15.351 4.613-4.613 41.102-34.835 44.968-30.969 3.865 3.864-26.357 40.354-30.97 44.967z" fill="#ff4a73"/><path d="M153.15 13.785v8.69c0 2.76-2.24 5-5 5h-15c2.76 0 5-2.24 5-5v-8.69c0-2.76-2.24-5-5-5h15c2.76 0 5 2.24 5 5z" fill="#796e84"/><path d="M122.85 27.475h-15c-2.76 0-5-2.24-5-5v-8.69c0-2.76 2.24-5 5-5h15c-2.76 0-5 2.24-5 5v8.69c0 2.76 2.24 5 5 5z" fill="#a4a4a5"/><path d="M228.43 146.785c0 55.38-45.05 100.43-100.43 100.43-2.52 0-5.02-.09-7.5-.28 51.89-3.84 92.93-47.29 92.93-100.15s-41.04-96.31-92.93-100.15c2.48-.19 4.98-.28 7.5-.28 55.38 0 100.43 45.05 100.43 100.43z" fill="#796e84"/><path d="M135.5 246.935c-2.48.19-4.98.28-7.5.28-55.38 0-100.43-45.05-100.43-100.43S72.62 46.355 128 46.355c2.52 0 5.02.09 7.5.28-51.89 3.84-92.93 47.29-92.93 100.15s41.04 96.31 92.93 100.15z" fill="#a4a4a5"/><path d="M165.56 114.515c-12.34 8-30.48 23.19-33.64 26.35-4.37 4.37-5.14 10.77-1.92 14.71-3.14.57-6.26-.19-8.43-2.36-3.87-3.86-3.26-10.74 1.35-15.35s41.1-34.83 44.97-30.97c.93.94-.13 3.78-2.33 7.62z" fill="#f973a3"/><circle cx="128" cy="146.785" fill="#ff4a73" r="15.627"/><path d="M135.5 160.495a15.457 15.457 0 01-7.5 1.92c-8.63 0-15.63-7-15.63-15.63s7-15.63 15.63-15.63c2.72 0 5.27.69 7.5 1.92-4.84 2.65-8.13 7.8-8.13 13.71s3.29 11.06 8.13 13.71z" fill="#f973a3"/><path d="M209.67 146.785c0 45.1-36.57 81.67-81.67 81.67-2.53 0-5.03-.11-7.5-.35 41.59-3.78 74.17-38.75 74.17-81.32s-32.58-77.54-74.17-81.32c2.47-.24 4.97-.35 7.5-.35 45.1 0 81.67 36.57 81.67 81.67z" fill="#30b6ff"/><path d="M135.5 228.105c-2.47.24-4.97.35-7.5.35-45.1 0-81.67-36.57-81.67-81.67S82.9 65.115 128 65.115c2.53 0 5.03.11 7.5.35-41.59 3.78-74.17 38.75-74.17 81.32s32.58 77.54 74.17 81.32z" fill="#73d7f9"/><g fill="#5f266d"><path d="M200.14 71.345l6.06-6.06a5.997 5.997 0 000-8.49l-8.19-8.18c-2.33-2.34-6.14-2.34-8.48 0l-8.34 8.34a103.288 103.288 0 00-40.86-13.87v-11.61h7.82c4.96 0 9-4.04 9-9v-8.69c0-4.96-4.04-9-9-9h-40.3c-4.96 0-9 4.04-9 9v8.69c0 4.96 4.04 9 9 9h7.82v11.61c-51.79 6.11-92.1 50.28-92.1 103.7 0 57.59 46.85 104.43 104.43 104.43s104.43-46.84 104.43-104.43c0-29.63-12.41-56.42-32.29-75.44zM128 243.215c-53.17 0-96.43-43.26-96.43-96.43 0-53.175 43.273-96.43 96.43-96.43 53.238 0 96.43 43.328 96.43 96.43 0 53.17-43.26 96.43-96.43 96.43zm-21.15-220.74v-8.69c0-.55.45-1 1-1h40.3c.55 0 1 .45 1 1v8.69c0 .55-.45 1-1 1h-40.3c-.55 0-1-.45-1-1zm16.82 9h8.66v10.98a94.03 94.03 0 00-8.66 0zm70.47 34.55c-1.97-1.61-4-3.16-6.08-4.62l5.71-5.72 5.36 5.35z"/><path d="M128 61.115c-47.162 0-85.67 38.356-85.67 85.67 0 47.24 38.43 85.67 85.67 85.67s85.67-38.43 85.67-85.67c0-47.28-38.475-85.67-85.67-85.67zm60.46 89.67h17.11c-2.02 39.65-33.92 71.55-73.57 73.57v-17.11c0-5.285-8-5.293-8 0v17.11c-39.65-2.02-71.55-33.92-73.57-73.57h17.11c5.285 0 5.293-8 0-8H50.43c2.02-39.65 33.92-71.55 73.57-73.57v17.11c0 5.285 8 5.293 8 0v-17.11c39.65 2.02 71.55 33.92 73.57 73.57h-17.11c-5.285 0-5.293 8 0 8z"/><path d="M143.28 116.005c-4.93 3.7-9.98 7.73-14.16 11.19-10.483-.847-20.75 7.834-20.75 19.59 0 10.82 8.81 19.63 19.63 19.63 11.684 0 20.444-10.188 19.59-20.75 3.46-4.18 7.49-9.23 11.19-14.16 14.28-19.01 15.22-24.15 11.94-27.44-3.29-3.28-8.43-2.34-27.44 11.94zM128 158.415c-6.41 0-11.63-5.22-11.63-11.63 0-6.431 5.24-11.63 11.63-11.63 6.404 0 11.63 5.229 11.63 11.63 0 6.385-5.194 11.63-11.63 11.63zm10.25-28.36c7.97-6.37 17.67-13.66 23.74-17.26-3.978 6.707-12.386 17.674-17.26 23.74a19.677 19.677 0 00-6.48-6.48z"/></g></svg>