<?xml version="1.0" encoding="utf-8"?>
<!-- Generator: Adobe Illustrator 23.0.5, SVG Export Plug-In . SVG Version: 6.00 Build 0)  -->
<svg version="1.1" id="Capa_1" xmlns="http://www.w3.org/2000/svg" xmlns:xlink="http://www.w3.org/1999/xlink" x="0px" y="0px"
	 viewBox="0 0 464.6 512" style="enable-background:new 0 0 464.6 512;" xml:space="preserve">
<style type="text/css">
	.st0{fill:#FFDB0C;}
	.st1{fill:#FBBF00;}
	.st2{fill:#F1F1F2;}
	.st3{fill:#E6E6E6;}
</style>
<path class="st0" d="M232.3,512L232.3,512C372,459.7,464.6,326.3,464.6,177.1V86.7c-47.9,0-86.7-38.8-86.7-86.7H232.3H86.7
	c0,47.9-38.8,86.7-86.7,86.7v90.4C0,326.3,92.6,459.7,232.3,512L232.3,512z"/>
<path class="st1" d="M232.3,512L232.3,512C372,459.7,464.6,326.3,464.6,177.1V86.7c-47.9,0-86.7-38.8-86.7-86.7H232.3
	C232.3,0,232.3,398,232.3,512L232.3,512z"/>
<polygon class="st2" points="199.9,346.3 122.9,269.3 165.3,226.9 199.9,261.4 299.2,162.1 341.6,204.6 "/>
<polygon class="st3" points="232.3,313.9 232.3,229.1 299.2,162.1 341.6,204.6 "/>
</svg>
