<?xml version="1.0" encoding="utf-8"?>
<!-- Generator: Adobe Illustrator 23.0.5, SVG Export Plug-In . SVG Version: 6.00 Build 0)  -->
<svg version="1.1" id="Icon_Set" xmlns="http://www.w3.org/2000/svg" xmlns:xlink="http://www.w3.org/1999/xlink" x="0px" y="0px"
	 viewBox="0 0 417.7 492.9" style="enable-background:new 0 0 417.7 492.9;" xml:space="preserve">
<style type="text/css">
	.st0{fill:#FF4A73;}
	.st1{fill:#87828E;}
	.st2{fill:#5FCDFF;}
	.st3{fill:#796E84;}
	.st4{fill:#A4A4A5;}
	.st5{fill:#F973A3;}
	.st6{fill:#30B6FF;}
	.st7{fill:#73D7F9;}
	.st8{fill:#5F266D;}
</style>
<path class="st0" d="M324.1,150.8l-22-22l35.5-35.5c1.6-1.6,4.1-1.6,5.7,0l16.4,16.4c1.6,1.6,1.6,4.1,0,5.7L324.1,150.8z"/>
<path class="st1" d="M192.2,45.4h33.3v65.2h-33.3L192.2,45.4z"/>
<circle class="st1" cx="208.9" cy="284" r="200.9"/>
<circle class="st2" cx="208.9" cy="284" r="163.3"/>
<path class="st1" d="M249.2,45.4h-80.6c-5.5,0-10-4.5-10-10V18c0-5.5,4.5-10,10-10h80.6c5.5,0,10,4.5,10,10v17.4
	C259.2,40.9,254.7,45.4,249.2,45.4z"/>
<path class="st0" d="M226.7,294.2c-9.2,9.2-23,10.4-30.7,2.7c-7.7-7.7-6.5-21.5,2.7-30.7c9.2-9.2,82.2-69.7,89.9-61.9
	C296.4,212,235.9,284.9,226.7,294.2z"/>
<path class="st3" d="M259.2,18v17.4c0,5.5-4.5,10-10,10h-30c5.5,0,10-4.5,10-10V18c0-5.5-4.5-10-10-10h30
	C254.7,8,259.2,12.5,259.2,18z"/>
<path class="st4" d="M198.6,45.4h-30c-5.5,0-10-4.5-10-10V18c0-5.5,4.5-10,10-10h30c-5.5,0-10,4.5-10,10v17.4
	C188.6,40.9,193,45.4,198.6,45.4z"/>
<path class="st3" d="M409.7,284c0,110.8-90.1,200.9-200.9,200.9c-5,0-10-0.2-15-0.6c103.8-7.7,185.9-94.6,185.9-200.3
	S297.6,91.4,193.9,83.7c5-0.4,10-0.6,15-0.6C319.6,83.1,409.7,173.2,409.7,284z"/>
<path class="st4" d="M223.9,484.3c-5,0.4-10,0.6-15,0.6C98.1,484.9,8,394.8,8,284S98.1,83.1,208.9,83.1c5,0,10,0.2,15,0.6
	C120.1,91.4,38,178.3,38,284S120.1,476.6,223.9,484.3z"/>
<path class="st5" d="M284,219.5c-24.7,16-61,46.4-67.3,52.7c-8.7,8.7-10.3,21.5-3.8,29.4c-6.3,1.1-12.5-0.4-16.9-4.7
	c-7.7-7.7-6.5-21.5,2.7-30.7s82.2-69.7,89.9-61.9C290.5,206.1,288.4,211.8,284,219.5L284,219.5z"/>
<circle class="st0" cx="208.9" cy="284" r="31.3"/>
<path class="st5" d="M223.9,311.4c-4.5,2.5-9.6,3.8-15,3.8c-17.3,0-31.3-14-31.3-31.3s14-31.3,31.3-31.3c5.4,0,10.5,1.4,15,3.8
	c-9.7,5.3-16.3,15.6-16.3,27.4S214.2,306.1,223.9,311.4z"/>
<path class="st6" d="M372.2,284c0,90.2-73.1,163.3-163.3,163.3c-5.1,0-10.1-0.2-15-0.7c83.2-7.6,148.3-77.5,148.3-162.6
	S277,128.9,193.9,121.4c4.9-0.5,9.9-0.7,15-0.7C299.1,120.7,372.2,193.8,372.2,284z"/>
<path class="st7" d="M223.9,446.6c-4.9,0.5-9.9,0.7-15,0.7c-90.2,0-163.3-73.1-163.3-163.3s73.1-163.3,163.3-163.3
	c5.1,0,10.1,0.2,15,0.7C140.7,128.9,75.5,198.9,75.5,284S140.7,439.1,223.9,446.6L223.9,446.6z"/>
<g>
	<path class="st8" d="M353.1,133.1l12.1-12.1c4.7-4.7,4.7-12.3,0-17l-16.4-16.4c-4.7-4.7-12.3-4.7-17,0l-16.7,16.7
		c-24.5-14.6-52.2-24.3-81.7-27.7V53.4h15.6c9.9,0,18-8.1,18-18V18c0-9.9-8.1-18-18-18h-80.6c-9.9,0-18,8.1-18,18v17.4
		c0,9.9,8.1,18,18,18h15.6v23.2C80.6,88.8,0,177.2,0,284c0,115.2,93.7,208.9,208.9,208.9S417.7,399.2,417.7,284
		C417.7,224.7,392.9,171.2,353.1,133.1L353.1,133.1z M208.9,476.9C102.5,476.9,16,390.3,16,284c0-106.4,86.5-192.9,192.9-192.9
		c106.5,0,192.9,86.7,192.9,192.9C401.7,390.3,315.2,476.9,208.9,476.9L208.9,476.9z M166.6,35.4V18c0-1.1,0.9-2,2-2h80.6
		c1.1,0,2,0.9,2,2v17.4c0,1.1-0.9,2-2,2c-17.5,0-62.9,0-80.6,0C167.5,37.4,166.6,36.5,166.6,35.4L166.6,35.4z M200.2,53.4h17.3v22
		c-5.5-0.3-11.8-0.3-17.3,0V53.4z M341.1,122.5c-3.9-3.2-8-6.3-12.2-9.2l11.4-11.4l10.7,10.7L341.1,122.5z"/>
	<path class="st8" d="M208.9,112.7c-94.3,0-171.3,76.7-171.3,171.3c0,94.5,76.9,171.3,171.3,171.3S380.2,378.5,380.2,284
		C380.2,189.4,303.3,112.7,208.9,112.7z M329.8,292H364c-4,79.3-67.8,143.1-147.1,147.1v-34.2c0-10.6-16-10.6-16,0v34.2
		c-79.3-4-143.1-67.8-147.1-147.1h34.2c10.6,0,10.6-16,0-16H53.7c4-79.3,67.8-143.1,147.1-147.1v34.2c0,10.6,16,10.6,16,0v-34.2
		c79.3,4,143.1,67.8,147.1,147.1h-34.2C319.2,276,319.2,292,329.8,292L329.8,292z"/>
	<path class="st8" d="M239.4,222.4c-9.9,7.4-20,15.5-28.3,22.4c-21-1.7-41.5,15.7-41.5,39.2c0,21.6,17.6,39.3,39.3,39.3
		c23.4,0,40.9-20.4,39.2-41.5c6.9-8.4,15-18.5,22.4-28.3c28.6-38,30.4-48.3,23.9-54.9C287.7,192,277.4,193.9,239.4,222.4
		L239.4,222.4z M208.9,307.3c-12.8,0-23.3-10.4-23.3-23.3c0-12.9,10.5-23.3,23.3-23.3c12.8,0,23.3,10.5,23.3,23.3
		C232.1,296.8,221.7,307.3,208.9,307.3z M229.4,250.5c15.9-12.7,35.3-27.3,47.5-34.5c-8,13.4-24.8,35.3-34.5,47.5
		C239.1,258.2,234.6,253.8,229.4,250.5L229.4,250.5z"/>
</g>
</svg>
