<svg version="1.1" id="Слой_1" xmlns="http://www.w3.org/2000/svg" x="0" y="0" viewBox="0 0 460 318" xml:space="preserve"><style>.st1{fill:#fff}</style><path d="M0-.2h460v318.5H0V-.2z" fill="#f962ad"/><path class="st1" d="M77.8-.2v16c0 3.9-3.1 7-7 7s-7-3.1-7-7v-16h14zM70.8 214.7c-3.9 0-7 3.1-7 7v35.8c0 3.9 3.1 7 7 7s7-3.1 7-7v-35.8c0-3.9-3.2-7-7-7zm0-80.6c-3.9 0-7 3.1-7 7v35.8c0 3.9 3.1 7 7 7s7-3.1 7-7v-35.8c0-3.9-3.2-7-7-7zm0-80.6c-3.9 0-7 3.1-7 7v35.8c0 3.9 3.1 7 7 7s7-3.1 7-7V60.5c0-3.8-3.2-7-7-7zM77.8 302.2v16h-14v-16c0-3.9 3.1-7 7-7s7 3.2 7 7zM128.7 73.2c-.6-13.9 10.1-25.6 24-26.3 13.9-.6 25.6 10.1 26.3 24v2.2c.5 13.9-10.3 25.6-24.2 26.1-13.9.5-25.6-10.3-26.1-24.2v-1.8zm37.2 0c0-8.9-5.2-15-12.2-15-7.1 0-12.1 6-12.1 15 0 8.6 5.3 14.7 12.1 14.7 7.1 0 12.2-6 12.2-14.7zm47.2-25.3H227L155.7 151h-13.8l71.2-103.1zm-23.5 78.5c-.6-13.9 10.1-25.6 24-26.3 13.9-.6 25.6 10.1 26.3 24v2.1c.6 13.9-10.1 25.6-24 26.3s-25.6-10.1-26.3-24v-2.1zm37.4 0c0-8.7-5.2-14.9-12.3-14.9s-12 6.2-12 14.7c0 8.9 5.1 15 12.2 15s12.1-6 12.1-14.8zM424.6 223.8H123.4c-3.9 0-7-3.1-7-7s3.1-7 7-7h301.2c3.9 0 7 3.1 7 7s-3.1 7-7 7zM424.6 281.6H123.4c-3.9 0-7-3.1-7-7s3.1-7 7-7h301.2c3.9 0 7 3.1 7 7s-3.1 7-7 7z"/><path class="st1" d="M424.6 223.8H123.4c-3.9 0-7-3.1-7-7s3.1-7 7-7h301.2c3.9 0 7 3.1 7 7s-3.1 7-7 7zM424.6 281.6H123.4c-3.9 0-7-3.1-7-7s3.1-7 7-7h301.2c3.9 0 7 3.1 7 7s-3.1 7-7 7zM424.6 50.4H307c-3.9 0-7-3.1-7-7s3.1-7 7-7h117.6c3.9 0 7 3.1 7 7s-3.1 7-7 7zM424.6 108.2H307c-3.9 0-7-3.1-7-7s3.1-7 7-7h117.6c3.9 0 7 3.1 7 7s-3.1 7-7 7z"/><path class="st1" d="M424.6 50.4H307c-3.9 0-7-3.1-7-7s3.1-7 7-7h117.6c3.9 0 7 3.1 7 7s-3.1 7-7 7zM424.6 166H307c-3.9 0-7-3.1-7-7s3.1-7 7-7h117.6c3.9 0 7 3.1 7 7s-3.1 7-7 7zM424.6 108.2H307c-3.9 0-7-3.1-7-7s3.1-7 7-7h117.6c3.9 0 7 3.1 7 7s-3.1 7-7 7z"/><path class="st1" d="M424.6 166H307c-3.9 0-7-3.1-7-7s3.1-7 7-7h117.6c3.9 0 7 3.1 7 7s-3.1 7-7 7z"/></svg>