<svg xmlns="http://www.w3.org/2000/svg" height="512" viewBox="0 0 128 128" width="512" data-name="Layer 1"><path d="M6.5 24.19h115v79.62H6.5z" fill="#f962ad" data-original="#FCB44D" class="active-path" data-old_color="#fcb44d"/><g fill="#f2f2f2"><path d="M25.94 24.19v4a1.75 1.75 0 11-3.5 0v-4zM24.19 77.92a1.752 1.752 0 00-1.75 1.75v8.95a1.75 1.75 0 003.5 0v-8.95a1.746 1.746 0 00-1.75-1.75zm0-20.15a1.758 1.758 0 00-1.75 1.75v8.96a1.75 1.75 0 003.5 0v-8.96a1.752 1.752 0 00-1.75-1.75zm0-20.14a1.758 1.758 0 00-1.75 1.75v8.95a1.75 1.75 0 003.5 0v-8.95a1.752 1.752 0 00-1.75-1.75zM25.94 99.81v4h-3.5v-4a1.75 1.75 0 013.5 0zM38.673 42.562a6.288 6.288 0 1112.564-.038 6.286 6.286 0 11-12.564.038zm9.3 0c0-2.213-1.312-3.751-3.038-3.751-1.763 0-3.037 1.5-3.037 3.751 0 2.138 1.313 3.675 3.037 3.675 1.765-.001 3.039-1.501 3.039-3.675zm11.814-6.339h3.451L45.424 61.989h-3.451zM53.9 55.838a6.288 6.288 0 1112.565-.038 6.288 6.288 0 11-12.564.037zm9.339 0c0-2.175-1.312-3.713-3.076-3.713s-3 1.538-3 3.676c0 2.213 1.275 3.751 3.038 3.751s3.038-1.501 3.038-3.714zM112.654 80.194H37.346a1.75 1.75 0 010-3.5h75.309a1.75 1.75 0 010 3.5zM112.654 94.639H37.346a1.75 1.75 0 010-3.5h75.309a1.75 1.75 0 110 3.5z" data-original="#000000" data-old_color="#000000" fill="#fff"/><path d="M112.654 80.194H37.346a1.75 1.75 0 010-3.5h75.309a1.75 1.75 0 010 3.5zM112.654 94.639H37.346a1.75 1.75 0 010-3.5h75.309a1.75 1.75 0 110 3.5zM112.654 36.861H83.25a1.75 1.75 0 010-3.5h29.4a1.75 1.75 0 010 3.5zM112.654 51.306H83.25a1.75 1.75 0 010-3.5h29.4a1.75 1.75 0 010 3.5z" data-original="#000000" data-old_color="#000000" fill="#fff"/><path d="M112.654 36.861H83.25a1.75 1.75 0 010-3.5h29.4a1.75 1.75 0 010 3.5zM112.654 65.75H83.25a1.75 1.75 0 010-3.5h29.4a1.75 1.75 0 110 3.5zM112.654 51.306H83.25a1.75 1.75 0 010-3.5h29.4a1.75 1.75 0 010 3.5z" data-original="#000000" data-old_color="#000000" fill="#fff"/><path d="M112.654 65.75H83.25a1.75 1.75 0 010-3.5h29.4a1.75 1.75 0 110 3.5z" data-original="#000000" data-old_color="#000000" fill="#fff"/></g></svg>