<?xml version="1.0" encoding="utf-8"?>
<!-- Generator: Adobe Illustrator 23.0.5, SVG Export Plug-In . SVG Version: 6.00 Build 0)  -->
<svg version="1.1" id="Capa_1" xmlns="http://www.w3.org/2000/svg" xmlns:xlink="http://www.w3.org/1999/xlink" x="0px" y="0px"
	 viewBox="0 0 408 512" style="enable-background:new 0 0 408 512;" xml:space="preserve">
<style type="text/css">
	.st0{fill:#ED694A;}
	.st1{fill:#D8553A;}
	.st2{fill:#F4A32C;}
	.st3{fill:#E89528;}
	.st4{fill:#F4D44E;}
	.st5{fill:#EAE9E8;}
	.st6{fill:#F7E7A1;}
	.st7{fill:#E8C842;}
</style>
<path class="st0" d="M321.5,163.8c-10.7-11.6-27.3-27.4-34.3,8.1c-2.4,12.1-8,21.4-12.8,28.9c-5.2-26.2-20.8-53.3-35.4-71.6
	c-5.5-6.8-25-34.1-28.7-79.6c-0.6-6.8-8.6-10-13.7-5.4c-48.2,43.8-74.7,104-75.7,171.8c0,0-20.1-16.9-31-48.4
	c-2.9-8.5-14.3-10.1-19.2-2.6c-0.9,1.4-1.8,2.9-2.6,4.3c-37.2,65.8-55.1,145.7-38.6,220C57.1,513.8,240.1,548.6,337,470.4
	C431.8,393.8,401.7,251.3,321.5,163.8z"/>
<g>
	<path class="st1" d="M55.2,397.1c-16.4-75.1,1-155.8,37.3-222.6c-0.9-2.2-1.8-4.5-2.6-6.9c-2.9-8.5-14.3-10.1-19.2-2.6
		c-0.9,1.4-1.8,2.9-2.6,4.3c-37.2,65.8-55.1,145.7-38.6,220C42,446.1,87,484.2,141.3,501.5C98.9,480.9,65.7,445.7,55.2,397.1z"/>
	<path class="st1" d="M146.7,214.8c2-61.5,24.3-116.7,64.1-159.1c-0.3-2.3-0.5-4.4-0.6-6c-0.6-6.9-8.3-10.3-13.4-5.7
		c-46.6,42.1-75,101.7-76,172.1l8.7,6.8c4.3,3.3,10.1,3.2,14.2,0.1C146.2,220.8,146.6,217.7,146.7,214.8z"/>
</g>
<path class="st2" d="M292.2,254.8c-7.9-8.6-20.1-20.2-25.3,6c-1.8,8.9-5.9,15.8-9.5,21.3c-3.8-19.4-15.3-39.4-26.2-52.9
	c-4.1-5.1-18.5-25.1-21.2-58.8c-0.4-5-6.4-7.4-10.1-4c-35.6,32.3-55.2,76.8-55.9,126.9c0,0-14.8-12.5-22.9-35.8
	c-2.2-6.3-10.6-7.5-14.2-1.9c-0.7,1.1-1.3,2.1-1.9,3.2c-27.5,48.6-40.7,107.6-28.5,162.5c20.4,92,155.6,117.7,227.2,59.9
	C373.7,424.7,351.5,319.5,292.2,254.8z"/>
<path class="st3" d="M102,428.6c-10.8-53.7,0.4-111.3,24.2-159.2c-1.8-3.5-3.5-7.5-5-11.8c-2.2-6.3-10.6-7.5-14.2-1.9
	c-0.7,1.1-1.3,2.1-1.9,3.2c-27.5,48.6-40.7,107.6-28.5,162.5c9.5,42.8,43.8,71.2,85,83.6C132.3,490.3,109.2,464.5,102,428.6z"/>
<path class="st4" d="M265.5,337.9c-5.3-5.8-13.6-13.7-17.2,4.1c-1.2,6-4,10.7-6.4,14.4c-2.6-13.1-10.4-26.7-17.7-35.8
	c-2.7-3.4-12.5-17-14.4-39.8c-0.3-3.4-4.3-5-6.8-2.7c-24.1,21.9-37.4,52-37.8,85.9c0,0-10-8.5-15.5-24.2c-1.5-4.2-7.2-5-9.6-1.3
	c-0.5,0.7-0.9,1.4-1.3,2.1c-18.6,32.9-27.6,72.9-19.3,110c13.8,62.2,105.4,79.7,153.8,40.5c16.6-13.4,26.9-32.3,29-53.2
	C305.4,406.4,293.2,368.1,265.5,337.9z"/>
<path class="st5" d="M240.7,415c-3-3.2-7.6-7.6-9.6,2.3c-0.7,3.4-2.2,6-3.6,8c-1.4-7.3-5.8-14.9-9.9-20c-1.5-1.9-7-9.5-8-22.2
	c-0.2-1.9-2.4-2.8-3.8-1.5c-13.4,12.2-20.8,29-21.1,47.9c0,0-5.6-4.7-8.6-13.5c-0.8-2.4-4-2.8-5.4-0.7c-0.3,0.4-0.5,0.8-0.7,1.2
	c-10.4,18.3-15.4,40.6-10.7,61.3c10.5,47.2,96.5,45.8,101.8-7C263,453.2,256.2,431.8,240.7,415z"/>
<path class="st6" d="M179.4,487.2c-4.6-18.5,0.4-38.4,10.7-54.8c0.2-0.3,0.5-0.7,0.7-1.1c1.4-1.9,4.5-1.5,5.4,0.6
	c3,7.8,8.6,12.1,8.6,12.1c0.2-13.9,5.3-26.5,14.5-36.6c-2.1-2.9-8.4-9.8-9.6-24.2c-0.2-1.9-2.4-2.8-3.8-1.5
	c-13.4,12.2-20.8,29-21.1,47.9c0,0-5.6-4.7-8.6-13.5c-0.8-2.4-4-2.8-5.4-0.7c-0.3,0.4-0.5,0.8-0.7,1.2
	c-10.4,18.3-15.4,40.6-10.7,61.3c4.3,19.2,21.8,30.7,41.2,33.5C190.1,506.2,182.1,498.1,179.4,487.2z"/>
<g>
	<path class="st1" d="M132.6,68c21.6-17.6,21.6-50.5,0-68C111,17.6,111,50.5,132.6,68z"/>
	<path class="st1" d="M391.8,209.2c21.6-17.6,21.6-50.5,0-68C381.9,149.2,370.2,191.7,391.8,209.2z"/>
	<path class="st1" d="M8.8,222.6c15.6-12.7,15.6-36.4,0-49C1.7,179.4-6.8,210,8.8,222.6z"/>
	<path class="st1" d="M278.7,117.1c15.6-12.7,15.6-36.4,0-49C263.1,80.7,263.2,104.4,278.7,117.1z"/>
</g>
<path class="st3" d="M163.9,285.3c3.6-42.3,19.7-79.8,46.8-108.5c-0.3-2.1-0.5-4.2-0.7-6.4c-0.4-5-6.4-7.4-10.1-4
	c-28.2,25.6-46.3,58.9-53,96.5l0,0c-0.5,2.8-1.1,6.9-1.5,10c0,0,0,0,0,0c-0.8,6.7-1.3,13.4-1.4,20.3
	C144.8,293.5,161.8,302.3,163.9,285.3z"/>
<g>
	<path class="st7" d="M144.4,459.5c-7.4-34.7-1.1-71.8,13.5-103.8c-2.8-4-5.9-9.3-8.2-15.9c-1.5-4.2-7.2-5-9.6-1.3
		c-0.5,0.7-0.9,1.4-1.3,2.1c-18.6,32.9-27.6,72.9-19.3,110c6.5,29.2,30,48.5,58.1,56.7C161.2,496.5,148.9,480.4,144.4,459.5z"/>
	<path class="st7" d="M191.7,348.8c2.4-17.4,9.6-36.6,20.8-52.7c-1.2-4.5-2.2-9.7-2.7-15.3c-0.3-3.4-4.3-5-6.8-2.7
		c-15,13.6-25.8,30.5-31.9,49.4l0,0c-1,3-2.3,7.9-3.2,11.8c0,0,0,0,0,0c-1.7,7.9-2.6,16.2-2.8,24.7
		C178.7,365.7,189.9,362.3,191.7,348.8z"/>
</g>
</svg>
